<svg xmlns="http://www.w3.org/2000/svg" viewBox="0 0 400 400">
  <defs>
    <linearGradient id="bg2" x1="0" y1="0" x2="1" y2="1">
      <stop offset="0" stop-color="#146B63"/>
      <stop offset="1" stop-color="#1D2027"/>
    </linearGradient>
  </defs>
  <rect width="400" height="400" fill="url(#bg2)"/>
  <g fill="#F1F1F4" opacity="0.92">
    <g transform="translate(70,150)"><circle cx="0" cy="0" r="16"/><rect x="-16" y="20" width="32" height="60" rx="12"/></g>
    <g transform="translate(140,160)"><circle cx="0" cy="0" r="16"/><rect x="-16" y="20" width="32" height="60" rx="12"/></g>
    <g transform="translate(210,150)"><circle cx="0" cy="0" r="16"/><rect x="-16" y="20" width="32" height="60" rx="12"/></g>
  </g>
  <rect x="270" y="120" width="90" height="130" rx="10" fill="#15171C" stroke="#D9A441" stroke-width="3"/>
  <g fill="#D9A441">
    <rect x="288" y="140" width="12" height="12"/><rect x="306" y="140" width="12" height="12"/><rect x="324" y="140" width="12" height="12"/>
    <rect x="288" y="158" width="12" height="12"/><rect x="324" y="158" width="12" height="12"/>
    <rect x="288" y="176" width="12" height="12"/><rect x="306" y="176" width="12" height="12"/><rect x="324" y="176" width="12" height="12"/>
    <rect x="306" y="194" width="12" height="12"/>
  </g>
  <path d="M240 210 L262 210 M254 202 L262 210 L254 218" stroke="#F1F1F4" stroke-width="4" fill="none" stroke-linecap="round" stroke-linejoin="round" opacity="0.8"/>
  <rect x="20" y="330" width="360" height="4" fill="#F1F1F4" opacity="0.25"/>
</svg>
