<svg xmlns="http://www.w3.org/2000/svg" viewBox="0 0 400 400">
  <defs>
    <linearGradient id="bg9" x1="0" y1="0" x2="0" y2="1">
      <stop offset="0" stop-color="#6A2C55"/>
      <stop offset="1" stop-color="#15171C"/>
    </linearGradient>
    <linearGradient id="beam9" x1="0" y1="0" x2="0" y2="1">
      <stop offset="0" stop-color="#D9A441" stop-opacity="0.45"/>
      <stop offset="1" stop-color="#D9A441" stop-opacity="0"/>
    </linearGradient>
  </defs>
  <rect width="400" height="400" fill="url(#bg9)"/>
  <polygon points="80,0 140,0 220,220 0,220" fill="url(#beam9)"/>
  <polygon points="260,0 320,0 400,220 180,220" fill="url(#beam9)"/>
  <g fill="#15171C">
    <g transform="translate(90,300)"><rect x="-10" y="0" width="20" height="60" rx="8"/><circle cx="0" cy="-16" r="16"/><path d="M-10 10 L-30 -30 M10 10 L30 -30" stroke="#15171C" stroke-width="10" stroke-linecap="round"/></g>
    <g transform="translate(160,320)"><rect x="-10" y="0" width="20" height="50" rx="8"/><circle cx="0" cy="-14" r="14"/><path d="M-10 8 L-28 -26 M10 8 L28 -26" stroke="#15171C" stroke-width="9" stroke-linecap="round"/></g>
    <g transform="translate(230,310)"><rect x="-10" y="0" width="20" height="56" rx="8"/><circle cx="0" cy="-15" r="15"/><path d="M-10 9 L-29 -29 M10 9 L29 -29" stroke="#15171C" stroke-width="9" stroke-linecap="round"/></g>
    <g transform="translate(300,300)"><rect x="-10" y="0" width="20" height="60" rx="8"/><circle cx="0" cy="-16" r="16"/><path d="M-10 10 L-30 -30 M10 10 L30 -30" stroke="#15171C" stroke-width="10" stroke-linecap="round"/></g>
  </g>
</svg>
