<svg xmlns="http://www.w3.org/2000/svg" viewBox="0 0 400 400">
  <defs>
    <linearGradient id="bg1" x1="0" y1="0" x2="1" y2="1">
      <stop offset="0" stop-color="#D9A441"/>
      <stop offset="1" stop-color="#15171C"/>
    </linearGradient>
    <linearGradient id="beam1" x1="0" y1="0" x2="0" y2="1">
      <stop offset="0" stop-color="#F1F1F4" stop-opacity="0.35"/>
      <stop offset="1" stop-color="#F1F1F4" stop-opacity="0"/>
    </linearGradient>
  </defs>
  <rect width="400" height="400" fill="url(#bg1)"/>
  <polygon points="120,0 180,0 260,260 40,260" fill="url(#beam1)"/>
  <polygon points="220,0 280,0 340,260 160,260" fill="url(#beam1)"/>
  <rect x="60" y="250" width="280" height="18" rx="4" fill="#F1F1F4" opacity="0.9"/>
  <rect x="150" y="120" width="100" height="70" rx="4" fill="#15171C" stroke="#D9A441" stroke-width="3"/>
  <rect x="160" y="130" width="80" height="50" fill="#6A2C55" opacity="0.6"/>
  <g fill="#15171C" opacity="0.85">
    <circle cx="90" cy="300" r="9"/>
    <circle cx="115" cy="308" r="9"/>
    <circle cx="140" cy="298" r="9"/>
    <circle cx="170" cy="310" r="9"/>
    <circle cx="200" cy="300" r="9"/>
    <circle cx="230" cy="308" r="9"/>
    <circle cx="260" cy="298" r="9"/>
    <circle cx="285" cy="310" r="9"/>
    <circle cx="310" cy="300" r="9"/>
  </g>
</svg>
